<?xml version="1.0" encoding="utf-8"?>
<!-- Generator: Adobe Illustrator 16.0.0, SVG Export Plug-In . SVG Version: 6.00 Build 0)  -->
<!DOCTYPE svg PUBLIC "-//W3C//DTD SVG 1.1//EN" "http://www.w3.org/Graphics/SVG/1.1/DTD/svg11.dtd">
<svg version="1.1" id="Layer_1" xmlns="http://www.w3.org/2000/svg" xmlns:xlink="http://www.w3.org/1999/xlink" x="0px" y="0px"
	 width="29px" height="33px" viewBox="0 0 29 33" enable-background="new 0 0 29 33" xml:space="preserve">
<g id="Footer">
	<path fill="#FFFFFF" d="M24,2V0h-1v2H6V0H5v2H0v31h7h1h6h1h6h1h7V2H24z M1,8h6v5H1V8z M14,21v5H8v-5H14z M8,20v-6h6v6H8z M15,21h6
		v5h-6V21z M15,20v-6h6v6H15z M15,13V8h6v5H15z M14,13H8V8h6V13z M1,14h6v6H1V14z M1,21h6v5H1V21z M1,32v-5h6v5H1z M8,32v-5h6v5H8z
		 M15,32v-5h6v5H15z M28,32h-6v-5h6V32z M28,26h-6v-5h6V26z M28,20h-6v-6h6V20z M28,13h-6V8h6V13z M28,7h-6h-1h-6h-1H8H7H1V3h4v2h1
		V3h17v2h1V3h4V7z"/>
</g>
</svg>
