<?xml version="1.0" encoding="utf-8"?>
<!-- Generator: Adobe Illustrator 16.0.0, SVG Export Plug-In . SVG Version: 6.00 Build 0)  -->
<!DOCTYPE svg PUBLIC "-//W3C//DTD SVG 1.1//EN" "http://www.w3.org/Graphics/SVG/1.1/DTD/svg11.dtd">
<svg version="1.1" id="Layer_1" xmlns="http://www.w3.org/2000/svg" xmlns:xlink="http://www.w3.org/1999/xlink" x="0px" y="0px"
	 width="29px" height="33px" viewBox="0 0 29 33" enable-background="new 0 0 29 33" xml:space="preserve">
<g id="Footer">
	<g>
		<rect x="5.167" y="32.143" fill="#FFFFFF" width="18" height="0.857"/>
		<path fill="#FFFFFF" d="M17.453,9.571c0-1.812-1.474-3.286-3.286-3.286s-3.286,1.475-3.286,3.286s1.474,3.286,3.286,3.286
			S17.453,11.383,17.453,9.571z M11.737,9.571c0-1.339,1.09-2.429,2.43-2.429s2.43,1.09,2.43,2.429S15.507,12,14.167,12
			S11.737,10.91,11.737,9.571z"/>
		<path fill="#FFFFFF" d="M13.864,29.775l0.303,0.298l0.303-0.298c0.406-0.396,9.935-9.83,9.935-19.594
			C24.404,4.567,19.813,0,14.172,0c-0.002,0-0.004,0-0.005,0s-0.003,0-0.005,0C8.521,0,3.93,4.567,3.93,10.182
			C3.93,19.945,13.458,29.379,13.864,29.775z M14.162,0.857c0.002,0,0.004,0,0.005,0s0.003,0,0.005,0
			c5.17,0,9.375,4.183,9.375,9.324c0,8.43-7.702,16.928-9.363,18.662c-0.004-0.005-0.012-0.014-0.017-0.019
			c-0.005,0.005-0.013,0.014-0.017,0.019c-1.661-1.734-9.363-10.232-9.363-18.662C4.787,5.04,8.992,0.857,14.162,0.857z"/>
	</g>
</g>
</svg>
