<?xml version="1.0" encoding="utf-8"?>
<!-- Generator: Adobe Illustrator 16.0.0, SVG Export Plug-In . SVG Version: 6.00 Build 0)  -->
<!DOCTYPE svg PUBLIC "-//W3C//DTD SVG 1.1//EN" "http://www.w3.org/Graphics/SVG/1.1/DTD/svg11.dtd">
<svg version="1.1" id="Layer_1" xmlns="http://www.w3.org/2000/svg" xmlns:xlink="http://www.w3.org/1999/xlink" x="0px" y="0px"
	 width="267.154px" height="112px" viewBox="0 0 267.154 112" enable-background="new 0 0 267.154 112" xml:space="preserve">
<g>
	<polygon fill="#A64C47" points="9.406,42.526 12.257,42.526 12.257,47.592 3.577,47.592 	"/>
	<rect x="113.475" y="92.321" fill="none" width="150.102" height="13.444"/>
	
		<text transform="matrix(1 0 0 1 114.9312 105.3975)" fill="#731009" font-family="'Raleway'" font-size="17.913" letter-spacing="14">CANADA</text>
	<path fill="#EE6D66" d="M121.466,72.252c-5.331-5.145-7.994-11.352-7.994-18.625c0-7.27,2.663-13.498,7.994-18.684
		c5.325-5.183,11.463-7.774,18.411-7.774c6.947,0,12.833,1.907,17.654,5.725c0.578,0.575,0.631,1.205,0.166,1.889
		c-0.471,0.686-1.101,0.772-1.89,0.27c-4.465-3.455-9.812-5.182-16.04-5.182c-6.228,0-11.717,2.319-16.469,6.963
		c-4.751,4.643-7.125,10.244-7.125,16.793c0,6.551,2.374,12.15,7.125,16.792c4.752,4.642,10.546,6.962,17.39,6.962
		c5.47,0,10.512-1.76,15.119-5.29c0.645-0.43,1.239-0.305,1.778,0.377c0.541,0.687,0.523,1.316-0.055,1.891
		c-4.97,3.816-10.584,5.723-16.843,5.723C133.196,80.012,126.791,77.401,121.466,72.252z"/>
	<path fill="#EE6D66" d="M169.901,34.944c4.852-5.183,10.739-7.774,17.653-7.774c6.908,0,12.812,2.591,17.706,7.774
		c4.894,5.186,7.342,11.414,7.342,18.684c0,7.273-2.448,13.498-7.342,18.681c-4.895,5.186-10.798,7.773-17.706,7.773
		c-6.914,0-12.802-2.588-17.653-7.773c-4.866-5.184-7.293-11.408-7.293-18.681C162.608,46.358,165.035,40.13,169.901,34.944z
		 M171.842,70.42c4.352,4.642,9.589,6.962,15.713,6.962c6.114,0,11.369-2.32,15.764-6.962c4.392-4.643,6.59-10.241,6.59-16.792
		c0-6.549-2.198-12.15-6.59-16.793c-4.395-4.644-9.649-6.963-15.764-6.963c-6.124,0-11.361,2.319-15.713,6.963
		c-4.36,4.643-6.535,10.244-6.535,16.793C165.307,60.179,167.481,65.777,171.842,70.42z"/>
	<path fill="#EE6D66" d="M221.893,80.082c-0.143-0.143-0.309-0.217-0.484-0.217c-0.182,0-0.271-0.141-0.271-0.43
		c-0.143-0.145-0.217-0.325-0.217-0.539V28.465c0-0.865,0.451-1.295,1.351-1.295c0.898,0,1.352,0.43,1.352,1.295v9.719
		c1.87-3.309,4.464-5.973,7.777-7.99c3.305-2.015,6.941-3.023,10.902-3.023c5.832,0,10.832,2.089,15.012,6.262
		c4.173,4.179,6.262,9.216,6.262,15.118v30.131c0,0.936-0.447,1.4-1.351,1.4c-0.898,0-1.345-0.465-1.345-1.4V48.55
		c0-5.182-1.821-9.592-5.456-13.228c-3.641-3.635-8.012-5.451-13.122-5.451c-5.111,0-9.503,1.816-13.175,5.451
		c-3.668,3.636-5.505,8.045-5.505,13.228v30.131c0,0.936-0.434,1.4-1.299,1.4H221.893z"/>
	<path fill="#EE6D66" d="M105.793,27.872c-0.508-0.467-1.115-0.702-1.837-0.702c-0.721,0-1.332,0.235-1.837,0.702
		c-0.504,0.469-0.756,1.063-0.756,1.782v28.724c-0.072,4.538-1.692,8.386-4.858,11.555c-3.171,3.171-7.006,4.751-11.503,4.751
		c-4.498,0-8.334-1.58-11.502-4.751c-3.17-3.169-4.753-7.017-4.753-11.555V29.654c0-0.719-0.25-1.313-0.754-1.782
		c-0.504-0.467-1.116-0.702-1.837-0.702s-1.331,0.235-1.835,0.702c-0.502,0.469-0.754,1.063-0.754,1.782v28.724
		c0,5.905,2.085,10.961,6.261,15.172c4.176,4.21,9.362,6.337,15.553,6.372s11.52-2.467,15.982-7.506v10.255
		c-0.072,5.473-2.054,10.116-5.94,13.933c-3.887,3.814-8.568,5.719-14.038,5.719c-3.024,0-5.905-0.682-8.641-2.049
		c-1.581-0.431-2.715,0.018-3.4,1.351c-0.687,1.329-0.307,2.466,1.131,3.399c3.676,1.657,7.307,2.484,10.91,2.484
		c6.98,0,12.922-2.41,17.817-7.234c4.895-4.824,7.346-10.688,7.346-17.603V58.378V29.654
		C106.548,28.935,106.294,28.341,105.793,27.872z"/>
	<linearGradient id="SVGID_1_" gradientUnits="userSpaceOnUse" x1="8.1494" y1="47.5234" x2="12.7018" y2="42.9711">
		<stop  offset="0" style="stop-color:#A64C47;stop-opacity:0"/>
		<stop  offset="0.0328" style="stop-color:#943731;stop-opacity:0.1027"/>
		<stop  offset="0.0727" style="stop-color:#85261F;stop-opacity:0.2275"/>
		<stop  offset="0.1204" style="stop-color:#7B1913;stop-opacity:0.377"/>
		<stop  offset="0.1833" style="stop-color:#75120B;stop-opacity:0.5737"/>
		<stop  offset="0.3194" style="stop-color:#731009"/>
		<stop  offset="0.5154" style="stop-color:#76130C;stop-opacity:0.712"/>
		<stop  offset="0.676" style="stop-color:#7E1D16;stop-opacity:0.4761"/>
		<stop  offset="0.824" style="stop-color:#8C2E28;stop-opacity:0.2586"/>
		<stop  offset="0.9638" style="stop-color:#A0453F;stop-opacity:0.0533"/>
		<stop  offset="1" style="stop-color:#A64C47;stop-opacity:0"/>
	</linearGradient>
	<polygon fill="url(#SVGID_1_)" points="9.406,42.526 6.061,45.435 8.542,47.592 12.257,47.592 12.257,42.526 	"/>
	<path fill="#EE6D66" d="M51.402,10.812c-4.209-4.213-9.272-6.32-15.174-6.32h-2.489h-0.217h-7.377h-1.323h-1.378
		c-0.719,0-1.329,0.25-1.835,0.755c-0.5,0.504-0.756,1.115-0.756,1.836v0.004v0.104v0.003c0,0.721,0.256,1.332,0.756,1.835
		c0.506,0.506,1.116,0.756,1.835,0.756h2.701h10.122c4.445,0.01,8.269,1.61,11.461,4.803c3.205,3.205,4.808,7.037,4.808,11.5
		s-1.603,8.298-4.808,11.5c-3.201,3.205-7.035,4.846-11.5,4.915H17.547V7.084c0-0.721-0.25-1.332-0.756-1.837
		c-0.505-0.501-1.112-0.755-1.833-0.755h-0.107c-0.722,0-1.333,0.254-1.837,0.755c-0.507,0.505-0.757,1.116-0.757,1.837v35.42h-8.68
		l5.829,5.087h2.851v29.902c0,0.721,0.25,1.33,0.757,1.833c0.504,0.503,1.115,0.755,1.837,0.755c0.719,0,1.35-0.252,1.888-0.755
		c0.539-0.503,0.812-1.112,0.812-1.833V47.592h18.678c5.901,0,10.965-2.116,15.174-6.33c4.211-4.212,6.318-9.287,6.318-15.226
		C57.721,20.096,55.613,15.021,51.402,10.812z"/>
	
		<linearGradient id="SVGID_2_" gradientUnits="userSpaceOnUse" x1="236.7046" y1="931.9023" x2="236.7046" y2="938.2702" gradientTransform="matrix(-1 0 0 -1 251.6084 976.1133)">
		<stop  offset="0" style="stop-color:#A64C47"/>
		<stop  offset="0.1258" style="stop-color:#AC4F49;stop-opacity:0.7911"/>
		<stop  offset="0.2888" style="stop-color:#BC5650;stop-opacity:0.5203"/>
		<stop  offset="0.4716" style="stop-color:#D6625C;stop-opacity:0.2167"/>
		<stop  offset="0.6021" style="stop-color:#EE6D66;stop-opacity:0"/>
	</linearGradient>
	<rect x="12.257" y="40.703" fill="url(#SVGID_2_)" width="5.294" height="1.801"/>
	
		<linearGradient id="SVGID_3_" gradientUnits="userSpaceOnUse" x1="-346.2671" y1="2959.0713" x2="-346.2671" y2="2965.1213" gradientTransform="matrix(1 0 0 1 361.1719 -2913.1016)">
		<stop  offset="0" style="stop-color:#A64C47"/>
		<stop  offset="0.1258" style="stop-color:#AC4F49;stop-opacity:0.7911"/>
		<stop  offset="0.2888" style="stop-color:#BC5650;stop-opacity:0.5203"/>
		<stop  offset="0.4716" style="stop-color:#D6625C;stop-opacity:0.2167"/>
		<stop  offset="0.6021" style="stop-color:#EE6D66;stop-opacity:0"/>
	</linearGradient>
	<rect x="12.258" y="47.592" fill="url(#SVGID_3_)" width="5.294" height="1.711"/>
</g>
</svg>
