<?xml version="1.0" encoding="utf-8"?>
<!-- Generator: Adobe Illustrator 16.0.0, SVG Export Plug-In . SVG Version: 6.00 Build 0)  -->
<!DOCTYPE svg PUBLIC "-//W3C//DTD SVG 1.1//EN" "http://www.w3.org/Graphics/SVG/1.1/DTD/svg11.dtd">
<svg version="1.1" id="Layer_1" xmlns="http://www.w3.org/2000/svg" xmlns:xlink="http://www.w3.org/1999/xlink" x="0px" y="0px"
	 width="37.117px" height="37.417px" viewBox="0 0 37.117 37.417" enable-background="new 0 0 37.117 37.417" xml:space="preserve">
<g id="Shape_1" display="none">
	<g display="inline">
		<g>
			<path fill="#FFFFFF" d="M0,81.141h79.35h14.541h24.284c22.371,0,40.571-18.199,40.571-40.571c0-8.542-2.626-16.717-7.596-23.638
				C143.54,6.33,131.212,0,118.175,0H66.387H35.838H0c0,0,0,2.368,0,5.29s0,5.29,0,5.29h35.838h30.549h51.788
				c9.64,0,18.755,4.682,24.384,12.523c3.67,5.111,5.608,11.152,5.608,17.468c0,16.538-13.455,29.992-29.992,29.992H93.891H79.35H0"
				/>
		</g>
		<g opacity="0.7">
			<path fill="#249CD7" d="M0,70.562h93.891c2.92,0,5.289,2.368,5.289,5.29c0,2.921-2.369,5.289-5.289,5.289H0"/>
		</g>
		<g opacity="0.7">
			<path fill="#66EECE" d="M118.175,81.141H79.35c-2.92,0-5.289-2.368-5.289-5.289c0-2.922,2.367-5.29,5.289-5.29h38.825
				c16.538,0,29.992-13.454,29.992-29.992c0-6.314-1.938-12.355-5.608-17.468c-1.705-2.373-1.162-5.678,1.211-7.382
				c2.373-1.703,5.679-1.16,7.383,1.212c4.969,6.921,7.595,15.096,7.595,23.638C158.746,62.942,140.546,81.141,118.175,81.141z"/>
		</g>
		<g opacity="0.7">
			<path fill="#EE6D66" d="M146.857,25.307c-1.646,0-3.268-0.767-4.301-2.205c-5.629-7.841-14.744-12.523-24.383-12.523H35.838
				c-2.921,0-5.29-2.368-5.29-5.29S32.917,0,35.838,0h82.337c13.038,0,25.365,6.33,32.978,16.932
				c1.703,2.374,1.16,5.678-1.213,7.382C149.005,24.985,147.927,25.307,146.857,25.307z"/>
		</g>
		<g opacity="0.7">
			<path fill="#EEE966" d="M0,0h88.191c2.922,0,5.289,2.368,5.289,5.29s-2.366,5.29-5.289,5.29H0"/>
		</g>
		<g opacity="0.3">
			<g>
				<path fill="#CCCCCC" d="M0,14.109h39.368h30.548h51.788c7.146,0,14,2.578,19.362,7.104
					c-5.674-6.692-14.059-10.633-22.893-10.633H66.387H35.838H0"/>
			</g>
			<g>
				<path fill="#CCCCCC" d="M0,84.669h82.88h14.539h24.285c22.371,0,40.571-18.198,40.571-40.569c0-8.542-2.627-16.718-7.596-23.638
					c-1.787-2.491-3.844-4.736-6.101-6.729c0.901,1.021,1.769,2.081,2.571,3.198c4.969,6.921,7.595,15.096,7.595,23.638
					c0,22.372-18.2,40.571-40.571,40.571H93.891H79.35H0"/>
			</g>
		</g>
	</g>
</g>
<g id="Shape_2" display="none">
	<g display="inline">
		<g opacity="0.3">
			<path fill="#CCCCCC" d="M217.18,66.591H99.382H85.328H41.379c-7.806,0-14.792-3.564-19.419-9.151
				c-0.313-0.378-0.612-0.767-0.901-1.159c-0.158-0.216-0.312-0.433-0.463-0.652c-0.297-0.43-0.582-0.869-0.85-1.317
				c-0.105-0.179-0.208-0.358-0.312-0.539c-0.287-0.508-0.562-1.022-0.812-1.549c-0.049-0.103-0.094-0.207-0.141-0.31
				c-0.274-0.599-0.535-1.203-0.762-1.822c-0.001-0.004-0.003-0.006-0.004-0.01c-0.243-0.66-0.454-1.332-0.642-2.012
				c-0.013-0.049-0.028-0.096-0.04-0.145c-0.178-0.657-0.324-1.321-0.449-1.992c-0.013-0.078-0.027-0.157-0.041-0.234
				c-0.114-0.66-0.204-1.326-0.267-1.996c-0.007-0.084-0.013-0.17-0.019-0.254c-0.057-0.689-0.093-1.378-0.093-2.07
				c0-0.557,0.025-1.116,0.062-1.67c0.863-13.125,11.811-23.542,25.151-23.542H57.75h15.453H217.18c0,0,0-2.554,0-5.704
				s0-5.704,0-5.704H73.205H57.752H41.379c-19.189,0-34.967,14.837-36.488,33.641C4.88,38.48,4.866,38.56,4.86,38.643
				c-0.008,0.099-0.005,0.2-0.012,0.299c-0.053,0.808-0.09,1.617-0.09,2.437c0,0.586,0.017,1.168,0.044,1.75
				c0.011,0.234,0.031,0.468,0.047,0.701c0.022,0.336,0.045,0.674,0.077,1.01c0.027,0.297,0.064,0.591,0.099,0.886
				c0.03,0.263,0.063,0.524,0.1,0.788c0.048,0.33,0.1,0.658,0.155,0.986c0.036,0.219,0.076,0.437,0.117,0.654
				c0.065,0.352,0.135,0.702,0.212,1.051c0.04,0.188,0.085,0.375,0.13,0.562c0.085,0.364,0.173,0.729,0.27,1.091
				c0.045,0.167,0.095,0.332,0.141,0.497c0.106,0.372,0.211,0.744,0.329,1.112c0.051,0.16,0.108,0.318,0.162,0.479
				c0.151,0.456,0.31,0.91,0.479,1.357c0.161,0.427,0.326,0.852,0.502,1.271c0.045,0.107,0.095,0.211,0.142,0.318
				c0.189,0.438,0.384,0.874,0.591,1.304c0.029,0.063,0.062,0.125,0.094,0.188c0.231,0.479,0.475,0.953,0.729,1.423
				c0.007,0.014,0.016,0.028,0.023,0.043c1.202,2.216,2.631,4.317,4.283,6.258c0.121,0.144,0.251,0.274,0.384,0.403
				C20.584,73.158,30.424,78,41.379,78h43.949h14.054H217.18"/>
		</g>
		<g>
			<path fill="#FFFFFF" d="M217.18,0H68.447H52.995H36.621C17.432,0,1.655,14.838,0.132,33.641c-0.01,0.082-0.023,0.161-0.03,0.243
				c-0.007,0.1-0.004,0.201-0.011,0.3C0.038,34.99,0,35.8,0,36.621c0,0.586,0.018,1.168,0.046,1.75
				c0.01,0.234,0.029,0.467,0.046,0.701c0.022,0.336,0.045,0.674,0.077,1.01c0.027,0.295,0.063,0.59,0.098,0.885
				c0.032,0.264,0.064,0.525,0.101,0.787c0.048,0.332,0.1,0.66,0.155,0.988c0.036,0.217,0.076,0.436,0.116,0.653
				c0.066,0.353,0.136,0.702,0.212,1.05c0.041,0.188,0.086,0.374,0.13,0.562c0.086,0.365,0.174,0.729,0.271,1.091
				c0.045,0.166,0.095,0.331,0.142,0.497c0.105,0.371,0.21,0.744,0.329,1.111c0.051,0.162,0.108,0.319,0.161,0.479
				c0.152,0.457,0.31,0.911,0.479,1.358c0.161,0.427,0.325,0.851,0.503,1.271c0.044,0.106,0.094,0.212,0.14,0.317
				c0.189,0.438,0.385,0.873,0.591,1.305c0.031,0.062,0.062,0.124,0.095,0.188c0.231,0.479,0.475,0.953,0.729,1.422
				c0.008,0.016,0.017,0.029,0.023,0.043c1.202,2.217,2.632,4.318,4.284,6.26c0.121,0.143,0.25,0.273,0.383,0.402
				c6.717,7.648,16.556,12.49,27.512,12.49H80.57h14.054H217.18c3.15,0,0-2.555,0-5.705s3.15-5.703,0-5.703H94.624H80.57H36.621
				c-7.805,0-14.792-3.564-19.42-9.152c-0.312-0.377-0.612-0.766-0.901-1.159c-0.158-0.214-0.312-0.433-0.463-0.651
				c-0.296-0.432-0.582-0.869-0.85-1.318c-0.106-0.178-0.207-0.358-0.311-0.538c-0.286-0.509-0.562-1.022-0.812-1.55
				c-0.05-0.102-0.094-0.207-0.141-0.31c-0.275-0.599-0.535-1.204-0.762-1.823c-0.001-0.002-0.003-0.004-0.004-0.008
				c-0.243-0.662-0.454-1.334-0.642-2.014c-0.014-0.049-0.027-0.096-0.041-0.145c-0.177-0.656-0.324-1.322-0.447-1.992
				c-0.014-0.077-0.028-0.156-0.042-0.234c-0.114-0.66-0.204-1.324-0.266-1.995c-0.008-0.085-0.013-0.17-0.021-0.255
				c-0.056-0.688-0.092-1.376-0.092-2.07c0-0.556,0.025-1.115,0.062-1.67c0.863-13.125,11.812-23.542,25.151-23.542h16.374h15.452
				H217.18"/>
		</g>
		<g opacity="0.7">
			<path fill="#66EECE" d="M217.18,11.408H52.995c-3.149,0-5.705-2.553-5.705-5.704C47.29,2.553,49.846,0,52.995,0H217.18"/>
		</g>
		<g opacity="0.7">
			<path fill="#EE6D66" d="M13.071,62.355c-1.613,0-3.217-0.682-4.345-2.006C3.1,53.742,0,45.314,0,36.621
				C0,16.428,16.428,0,36.621,0h22.841c3.149,0,5.704,2.554,5.704,5.704s-2.555,5.704-5.704,5.704H36.621
				c-13.902,0-25.213,11.31-25.213,25.212c0,5.985,2.133,11.787,6.004,16.334c2.043,2.397,1.754,5.998-0.645,8.041
				C15.694,61.91,14.379,62.355,13.071,62.355z"/>
		</g>
		<g opacity="0.7">
			<path fill="#EEE966" d="M217.18,73.242H80.57c-3.15,0-5.704-2.554-5.704-5.703c0-3.15,2.554-5.705,5.704-5.705H217.18"/>
		</g>
		<g opacity="0.7">
			<path fill="#249CD7" d="M94.624,73.242H36.621C16.428,73.242,0,56.814,0,36.621c0-0.91,0.035-1.832,0.102-2.736
				c0.232-3.141,2.96-5.5,6.109-5.266c3.142,0.231,5.501,2.967,5.267,6.108c-0.046,0.625-0.069,1.263-0.069,1.894
				c0,13.903,11.312,25.213,25.213,25.213h58.003c3.15,0,5.704,2.555,5.704,5.705C100.328,70.688,97.773,73.242,94.624,73.242z"/>
		</g>
	</g>
</g>
<g id="Shape_3" display="none">
	<g display="inline">
		<g opacity="0.3">
			<path fill="#CCCCCC" d="M0,20.619h798.372h93.13h311.035c37.938,0,68.807,30.866,68.807,68.809c0,7.07-1.062,14.039-3.166,20.709
				c0,0,0,0-0.003,0.002c-9.067,28.77-35.444,48.098-65.638,48.098H825.531h-47.289H0c0,0,0,3.529,0,7.883C0,170.471,0,174,0,174
				h778.242h47.289h377.006c37.107,0,69.525-23.758,80.671-59.121c0,0,0.002-0.002,0.002-0.004
				c2.587-8.205,3.899-16.767,3.899-25.447c0-46.633-37.94-84.572-84.572-84.572H891.502h-93.13H0"/>
		</g>
		<g>
			<path fill="#FFFFFF" d="M0,15.763h790.637h93.128h311.034c37.943,0,68.812,30.867,68.812,68.811
				c0,7.071-1.065,14.039-3.17,20.709c0,0.002,0,0.002-0.002,0.002c-9.065,28.77-35.444,48.098-65.641,48.098H817.794h-47.289H0
				c0,0,0,3.531,0,7.884c0,4.354,0,7.881,0,7.881h770.505h47.289h377.005c37.107,0,69.527-23.758,80.676-59.122
				c0-0.002,0-0.002,0-0.004c2.587-8.205,3.897-16.768,3.897-25.447c0-46.632-37.938-84.572-84.573-84.572H883.765h-93.128H0"/>
		</g>
		<g opacity="0.7">
			<path fill="#249CD7" d="M0,153.382h817.794c4.354,0,7.882,3.529,7.882,7.882c0,4.354-3.527,7.883-7.882,7.883H0"/>
		</g>
		<g opacity="0.7">
			<path fill="#66EECE" d="M1194.799,169.146H660.42c-4.354,0-7.883-3.527-7.883-7.883c0-4.352,3.528-7.883,7.883-7.883h534.379
				c30.197,0,56.574-19.328,65.643-48.1c1.31-4.152,5.735-6.453,9.887-5.148c4.15,1.308,6.454,5.734,5.146,9.886
				C1264.328,145.384,1231.907,169.146,1194.799,169.146z"/>
		</g>
		<g opacity="0.7">
			<path fill="#EE6D66" d="M1267.959,115.535c-0.784,0-1.583-0.119-2.37-0.367c-4.153-1.309-6.455-5.734-5.149-9.885
				c2.104-6.671,3.172-13.639,3.172-20.711c0-37.941-30.867-68.81-68.812-68.81H790.637c-4.354,0-7.882-3.528-7.882-7.881
				S786.283,0,790.637,0h404.162c46.635,0,84.573,37.94,84.573,84.572c0,8.682-1.312,17.243-3.897,25.447
				C1274.413,113.382,1271.311,115.535,1267.959,115.535z"/>
		</g>
		<g opacity="0.7">
			<path fill="#EEE966" d="M0,0h883.765c4.354,0,7.88,3.529,7.88,7.881c0,4.353-3.525,7.881-7.88,7.881H0"/>
		</g>
	</g>
</g>
<g id="Shape_4" display="none">
	<g display="inline">
		<g opacity="0.3">
			<path fill="#CCCCCC" d="M312.478,50.74c0-25.219-20.516-45.735-45.73-45.735h-56.896H1.473c0.672,0,0,2.687,0,6s0,6,0,6h208.378
				h56.895c18.6,0,33.732,15.133,33.732,33.735c0,14.465-9.152,26.827-21.968,31.612c-0.093,0.035-0.186,0.071-0.276,0.104
				c-0.394,0.143-0.791,0.273-1.188,0.402c-0.175,0.057-0.351,0.111-0.526,0.165c-0.349,0.104-0.699,0.205-1.053,0.3
				c-0.234,0.062-0.471,0.121-0.708,0.18c-0.313,0.076-0.628,0.15-0.944,0.22c-0.285,0.062-0.571,0.114-0.859,0.168
				c-0.282,0.053-0.564,0.106-0.852,0.151c-0.33,0.054-0.666,0.097-1,0.14c-0.25,0.032-0.5,0.069-0.754,0.097
				c-0.391,0.042-0.783,0.069-1.178,0.1c-0.204,0.014-0.406,0.035-0.611,0.045c-0.604,0.033-1.207,0.051-1.813,0.051H134.493
				h-23.748H1.473c0,0,0,2.688,0,6c0,3.314,0,6,0,6h109.272h23.748h132.252h0.002c0.005,0,0.01,0,0.017,0
				c0.818,0,1.633-0.023,2.44-0.066c0.278-0.016,0.555-0.045,0.832-0.064c0.532-0.037,1.065-0.075,1.595-0.133
				c0.342-0.035,0.682-0.086,1.021-0.129c0.453-0.061,0.906-0.117,1.356-0.189c0.386-0.062,0.771-0.135,1.153-0.206
				c0.389-0.073,0.777-0.146,1.163-0.229c0.431-0.092,0.856-0.192,1.284-0.297c0.32-0.078,0.639-0.158,0.955-0.242
				c0.479-0.129,0.959-0.265,1.434-0.408c0.234-0.071,0.469-0.145,0.703-0.221c0.545-0.174,1.087-0.354,1.624-0.551
				c0.118-0.043,0.237-0.089,0.356-0.133c7.471-2.773,14.172-7.48,19.387-13.814c0.14-0.17,0.267-0.346,0.385-0.524
				C308.719,71.436,312.478,61.522,312.478,50.74z"/>
		</g>
		<g>
			<path fill="#FFFFFF" d="M307.473,45.735C307.473,20.516,286.957,0,261.74,0h-56.896H1.473c-3.313,0,0,2.687,0,6s-3.313,6,0,6
				h203.373h56.896c18.601,0,33.731,15.132,33.731,33.735c0,14.464-9.15,26.827-21.968,31.613c-0.092,0.034-0.185,0.069-0.276,0.104
				c-0.393,0.143-0.789,0.274-1.188,0.401c-0.176,0.058-0.351,0.112-0.526,0.166c-0.349,0.104-0.699,0.205-1.053,0.299
				c-0.234,0.063-0.472,0.123-0.708,0.181c-0.313,0.076-0.628,0.15-0.944,0.219c-0.285,0.062-0.572,0.115-0.859,0.169
				c-0.283,0.053-0.564,0.106-0.85,0.151c-0.332,0.053-0.666,0.098-1,0.141c-0.252,0.031-0.502,0.068-0.757,0.096
				c-0.391,0.041-0.782,0.07-1.177,0.098c-0.204,0.017-0.407,0.037-0.612,0.047c-0.602,0.033-1.206,0.052-1.812,0.052H129.488
				h-23.75H1.473c-3.313,0,0,2.687,0,6c0,3.312-3.313,6,0,6H105.74h23.75h132.25h0.001c0.006,0,0.012-0.001,0.017-0.001
				c0.819,0,1.633-0.024,2.442-0.067c0.276-0.016,0.554-0.044,0.831-0.063c0.533-0.037,1.066-0.076,1.595-0.133
				c0.342-0.035,0.681-0.086,1.021-0.129c0.453-0.06,0.908-0.117,1.357-0.189c0.387-0.062,0.77-0.135,1.154-0.207
				c0.389-0.072,0.777-0.145,1.162-0.229c0.431-0.091,0.856-0.191,1.283-0.297c0.319-0.078,0.64-0.156,0.957-0.242
				c0.479-0.129,0.957-0.265,1.433-0.408c0.235-0.07,0.47-0.146,0.702-0.221c0.546-0.174,1.088-0.355,1.625-0.551
				c0.119-0.043,0.236-0.089,0.354-0.134c7.472-2.772,14.175-7.479,19.388-13.813c0.141-0.17,0.268-0.347,0.385-0.525
				C303.714,66.432,307.473,56.516,307.473,45.735z"/>
		</g>
		<g opacity="0.7">
			<path fill="#EEE966" d="M261.74,91.468c-3.313,0-6-2.688-6-6s2.687-6,6-6c18.601,0,33.732-15.133,33.732-33.733
				C295.473,27.132,280.341,12,261.74,12h-56.896c-3.312,0-6-2.687-6-6s2.688-6,6-6h56.896c25.217,0,45.73,20.516,45.73,45.735
				C307.473,70.953,286.957,91.468,261.74,91.468z"/>
		</g>
		<g opacity="0.7">
			<path fill="#249CD7" d="M204.846,12H1.473c0,0,0-2.687,0-6s0-6,0-6h203.373c3.313,0,6,2.687,6,6S208.159,12,204.846,12z"/>
		</g>
		<g opacity="0.8">
			<path fill="#EE6D66" d="M129.488,91.468H1.473c0,0,0-2.688,0-6s0-6,0-6H129.49c3.312,0,6,2.688,6,6
				C135.488,88.783,132.802,91.468,129.488,91.468z"/>
		</g>
		<g opacity="0.8">
			<path fill="#66EECE" d="M261.741,91.468L261.741,91.468H105.738c-3.312,0-6-2.688-6-6s2.688-6,6-6H261.74
				c10.121,0,19.619-4.486,26.059-12.311c2.105-2.561,5.889-2.928,8.446-0.82c2.56,2.105,2.925,5.888,0.819,8.445
				C288.337,85.387,275.462,91.468,261.741,91.468z"/>
		</g>
	</g>
</g>
<g id="Shape_5" display="none">
	<g display="inline">
		<g opacity="0.3">
			<path fill="#CCCCCC" d="M308.61,97.309H123.704H57.229c-22.651,0-41.079-18.429-41.079-41.079
				c0-17.622,11.153-32.684,26.771-38.505c0.104-0.039,0.205-0.078,0.308-0.116c0.483-0.176,0.979-0.339,1.47-0.498
				c0.206-0.064,0.413-0.131,0.62-0.193c0.429-0.131,0.861-0.254,1.298-0.37c0.28-0.076,0.563-0.146,0.845-0.216
				c0.389-0.094,0.775-0.185,1.168-0.269c0.342-0.074,0.686-0.138,1.028-0.202c0.348-0.066,0.696-0.131,1.05-0.188
				c0.398-0.063,0.803-0.115,1.204-0.167c0.312-0.041,0.618-0.085,0.932-0.118c0.472-0.05,0.944-0.085,1.417-0.119
				c0.256-0.018,0.504-0.045,0.762-0.058c0.723-0.039,1.447-0.06,2.18-0.06c0.009,0,0.02,0,0.029,0h154.52h27.749h69.113
				c0,0,0-2.394,0-5.346c0-2.952,0-5.345,0-5.345h-69.113H211.75H57.229c-0.002,0-0.002,0-0.004,0c-0.01,0-0.019,0.001-0.025,0.001
				c-0.926,0-1.844,0.026-2.756,0.075c-0.315,0.016-0.627,0.05-0.941,0.072c-0.605,0.043-1.207,0.086-1.804,0.149
				c-0.392,0.042-0.775,0.099-1.164,0.148c-0.513,0.067-1.021,0.132-1.528,0.213c-0.438,0.07-0.874,0.154-1.311,0.235
				c-0.438,0.082-0.879,0.164-1.312,0.256c-0.486,0.104-0.974,0.22-1.457,0.338c-0.359,0.088-0.72,0.178-1.076,0.271
				c-0.545,0.146-1.088,0.3-1.627,0.464c-0.265,0.081-0.527,0.162-0.791,0.248c-0.619,0.198-1.234,0.404-1.845,0.625
				c-0.132,0.049-0.263,0.1-0.396,0.149c-8.461,3.14-16.047,8.467-21.95,15.641c-0.134,0.16-0.251,0.328-0.362,0.5
				C9.744,32.721,5.459,43.983,5.459,56.23c0,28.546,23.225,51.77,51.77,51.77h66.476H308.61c0,0,0-2.394,0-5.346
				C308.61,99.703,308.61,97.309,308.61,97.309z"/>
		</g>
		<g>
			<path fill="#FFFFFF" d="M308.61,92.852H119.245H52.771c-22.65,0-41.082-18.431-41.082-41.082
				c0-17.621,11.156-32.682,26.772-38.502c0.104-0.04,0.205-0.08,0.308-0.118c0.486-0.176,0.978-0.339,1.471-0.498
				c0.205-0.065,0.412-0.13,0.619-0.193c0.43-0.132,0.861-0.253,1.297-0.369c0.281-0.076,0.562-0.146,0.848-0.215
				c0.387-0.095,0.771-0.186,1.166-0.269c0.342-0.073,0.686-0.139,1.028-0.203c0.349-0.066,0.698-0.13,1.05-0.188
				c0.4-0.063,0.802-0.115,1.204-0.167c0.312-0.041,0.618-0.085,0.931-0.119c0.473-0.049,0.945-0.084,1.419-0.117
				c0.253-0.02,0.505-0.045,0.761-0.06c0.724-0.038,1.446-0.059,2.178-0.06c0.011,0,0.021-0.001,0.031-0.001h154.52h27.749h73.572
				c2.953,0,0-2.393,0-5.345c0-2.952,2.953-5.346,0-5.346H235.04h-27.749H52.771c-0.002,0-0.002,0-0.004,0
				c-0.01,0-0.021,0.001-0.029,0.001c-0.924,0-1.842,0.027-2.754,0.076c-0.314,0.017-0.629,0.05-0.94,0.073
				c-0.604,0.043-1.206,0.085-1.803,0.149c-0.392,0.042-0.776,0.098-1.164,0.148c-0.511,0.067-1.022,0.132-1.528,0.213
				c-0.438,0.071-0.875,0.153-1.312,0.235c-0.438,0.082-0.875,0.164-1.312,0.256c-0.489,0.104-0.973,0.22-1.458,0.338
				c-0.361,0.087-0.721,0.178-1.076,0.273c-0.545,0.146-1.088,0.3-1.627,0.463c-0.264,0.079-0.525,0.163-0.789,0.248
				c-0.619,0.198-1.232,0.404-1.847,0.625c-0.131,0.048-0.265,0.1-0.396,0.149c-8.459,3.14-16.047,8.468-21.95,15.641
				c-0.133,0.162-0.251,0.33-0.364,0.501C5.285,28.264,1.001,39.523,1.001,51.77c0,28.547,23.224,51.771,51.771,51.771h66.475
				H308.61c2.949,0,0-2.394,0-5.346C308.61,95.244,311.562,92.852,308.61,92.852z"/>
		</g>
		<g opacity="0.7">
			<path fill="#EEE966" d="M119.245,103.542H52.771c-28.547,0-51.771-23.226-51.771-51.771C1.001,23.224,24.225,0,52.771,0
				c2.953,0,5.345,2.394,5.345,5.346c0,2.952-2.392,5.345-5.345,5.345c-22.65,0-41.082,18.428-41.082,41.079
				s18.431,41.082,41.082,41.082h66.475c2.952,0,5.344,2.392,5.344,5.344C124.589,101.147,122.197,103.542,119.245,103.542z"/>
		</g>
		<g opacity="0.7">
			<path fill="#249CD7" d="M308.61,103.542H119.245c-2.952,0-5.347-2.396-5.347-5.347c0-2.952,2.395-5.344,5.347-5.344H308.61
				c0,0,0,2.392,0,5.344C308.61,101.147,308.61,103.542,308.61,103.542z"/>
		</g>
		<g opacity="0.7">
			<path fill="#EE6D66" d="M308.61,10.691H207.289c-2.952,0-5.346-2.393-5.346-5.345c0-2.952,2.394-5.346,5.346-5.346H308.61
				c0,0,0,2.394,0,5.346C308.61,8.298,308.61,10.691,308.61,10.691z"/>
		</g>
		<g opacity="0.7">
			<path fill="#66EECE" d="M16.908,27.63c-1.198,0-2.399-0.399-3.395-1.219c-2.28-1.877-2.607-5.244-0.731-7.523
				C22.663,6.884,37.236,0,52.768,0c0.002,0,0.002,0,0.004,0h182.268c2.952,0,5.346,2.394,5.346,5.346
				c0,2.952-2.394,5.345-5.346,5.345H52.771h-0.004c-12.324,0-23.891,5.464-31.729,14.991C19.979,26.966,18.45,27.63,16.908,27.63z"
				/>
		</g>
	</g>
</g>
<g id="Shape_6" display="none">
	<g display="inline">
		<g opacity="0.2">
			<path fill="#F2F2F2" d="M90.82,132H0c0,0,0-2.891,0-6.457s0-6.457,0-6.457h90.82c3.566,0,6.457,2.891,6.457,6.457
				S94.387,132,90.82,132z"/>
		</g>
		<g opacity="0.2">
			<path fill="#F2F2F2" d="M300.283,132H62.598c-3.566,0-6.457-2.891-6.457-6.457s2.891-6.457,6.457-6.457h237.686
				c29.271,0,53.086-23.814,53.086-53.086s-23.814-53.084-53.086-53.084l-110.161-0.001c-3.565,0-6.458-2.891-6.458-6.457
				S186.557,0,190.122,0l0,0l110.161,0.001c36.393,0,66,29.607,66,65.999C366.283,102.393,336.675,132,300.283,132z"/>
		</g>
		<g opacity="0.2">
			<path fill="#F2F2F2" d="M218.891,12.914H0c0,0,0-2.891,0-6.457S0,0,0,0h218.891c3.566,0,6.457,2.891,6.457,6.457
				S222.457,12.914,218.891,12.914z"/>
		</g>
	</g>
</g>
<g id="Shape7" display="none">
	<g display="inline">
		<g opacity="0.2">
			<path fill="#044969" d="M461.001,9.761H325.448c-2.42,0-4.381-1.961-4.381-4.38s1.961-4.38,4.381-4.38h135.553
				c0,0,0,1.961,0,4.38S461.001,9.761,461.001,9.761z"/>
		</g>
		<g opacity="0.2">
			<path fill="#044969" d="M29.564,11.399c-1.854,0-3.578-1.188-4.172-3.051c-0.734-2.304,0.537-4.769,2.844-5.503
				C32.073,1.621,36.078,1,40.137,1h299.585c2.42,0,4.38,1.961,4.38,4.38s-1.96,4.38-4.38,4.38H40.139
				c-3.156,0-6.265,0.48-9.24,1.43C30.455,11.333,30.007,11.399,29.564,11.399z"/>
		</g>
		<g opacity="0.2">
			<path fill="#044969" d="M245.631,79.276H40.139c-21.582,0-39.138-17.558-39.138-39.138c0-17.112,10.945-32.098,27.235-37.292
				c2.304-0.736,4.768,0.537,5.504,2.842c0.734,2.305-0.537,4.769-2.844,5.503C18.255,15.223,9.761,26.855,9.761,40.138
				c0,16.75,13.627,30.378,30.377,30.378h205.492c2.419,0,4.38,1.961,4.38,4.379C250.011,77.315,248.05,79.276,245.631,79.276z"/>
		</g>
		<g opacity="0.2">
			<path fill="#044969" d="M461.001,79.276H215.458c-2.42,0-4.381-1.961-4.381-4.381c0-2.418,1.961-4.379,4.381-4.379h245.543
				c0,0,0,1.961,0,4.379C461.001,77.315,461.001,79.276,461.001,79.276z"/>
		</g>
	</g>
</g>
<g id="Shape8" display="none">
	<g display="inline">
		<g opacity="0.2">
			<path fill="#044969" d="M268.798,16.001H1.001c0,0,0-3.357,0-7.5s0-7.5,0-7.5h267.797c4.142,0,7.5,3.357,7.5,7.5
				S272.939,16.001,268.798,16.001z"/>
		</g>
		<g opacity="0.2">
			<path fill="#044969" d="M304.281,135.878H1.001c0,0,0-3.357,0-7.5c0-4.144,0-6.754,0-7.5h303.28
				c28.915,0,52.438-23.523,52.438-52.439c0-28.914-23.522-52.438-52.438-52.438h-73.098c-4.142,0-7.5-3.357-7.5-7.5
				s3.358-7.5,7.5-7.5h73.098c37.186,0,67.438,30.252,67.438,67.438S341.467,135.878,304.281,135.878z"/>
		</g>
	</g>
</g>
<g id="Layer_9" display="none">
	<g display="inline" opacity="0.3">
		<path fill="#FFFFFF" d="M300.486,14.001H141.117c-3.59,0-6.5-2.91-6.5-6.5s2.91-6.5,6.5-6.5h159.369c0,0,0,2.91,0,6.5
			S300.486,14.001,300.486,14.001z"/>
	</g>
	<g display="inline" opacity="0.3">
		<path fill="#FFFFFF" d="M300.486,70.192L300.486,70.192L37.361,70.19c-20.049,0-36.36-15.521-36.36-34.594
			C1.001,16.52,17.313,1,37.361,1H173.12c3.59,0,6.5,2.91,6.5,6.5s-2.91,6.5-6.5,6.5H37.361c-12.881,0-23.36,9.688-23.36,21.596
			c0,11.905,10.479,21.594,23.36,21.594l263.125,0.002c0,0,0,2.91,0,6.5C300.486,67.283,300.486,69.5,300.486,70.192z"/>
	</g>
</g>
<g>
	<path fill="#00ABE3" d="M18.5,1.001C8.835,1.001,1,8.836,1,18.501c0,9.665,7.835,17.5,17.5,17.5S36,28.166,36,18.501
		C36,8.836,28.165,1.001,18.5,1.001z M27.199,14.11c0.01,0.189,0.012,0.38,0.012,0.571c0,5.839-4.513,12.57-12.769,12.57
		c-2.533,0-4.894-0.731-6.879-1.984c0.351,0.041,0.707,0.062,1.07,0.062c2.104,0,4.037-0.707,5.574-1.893
		c-1.963-0.036-3.62-1.314-4.192-3.068c0.276,0.051,0.555,0.08,0.844,0.08c0.411,0,0.807-0.055,1.184-0.156
		c-2.053-0.406-3.6-2.191-3.6-4.333c0-0.018,0-0.037,0-0.055c0.604,0.331,1.297,0.529,2.031,0.552
		c-1.202-0.792-1.996-2.144-1.996-3.676c0-0.81,0.222-1.569,0.608-2.221c2.214,2.673,5.52,4.432,9.249,4.616
		c-0.075-0.324-0.115-0.66-0.115-1.007c0-2.44,2.008-4.418,4.488-4.418c1.291,0,2.458,0.537,3.274,1.396
		c1.022-0.198,1.983-0.567,2.851-1.073c-0.336,1.032-1.047,1.898-1.972,2.443c0.908-0.106,1.772-0.343,2.576-0.695
		C28.838,12.709,28.076,13.487,27.199,14.11z"/>
</g>
<g id="Layer_11" display="none">
	<g display="inline">
		<path fill="#235B9E" d="M36.001,18.501c0,9.665-7.836,17.5-17.498,17.5c-9.666,0-17.502-7.836-17.502-17.5
			c0-9.666,7.836-17.5,17.502-17.5C28.165,1.001,36.001,8.836,36.001,18.501z"/>
		<g>
			<path fill="#FFFFFF" d="M15.584,29.439h4.375c0,0,0-6.039,0-10.938h3.247l0.399-4.375h-3.479v-1.75
				c0-0.853,0.568-1.051,0.967-1.051c0.399,0,2.455,0,2.455,0V7.578l-3.38-0.014c-3.751,0-4.604,2.795-4.604,4.585v1.978h-2.17
				v4.375h2.188C15.584,23.458,15.584,29.439,15.584,29.439z"/>
		</g>
		<path fill="#235B9E" d="M36.001,18.501c0,9.665-7.836,17.5-17.498,17.5c-9.666,0-17.502-7.836-17.502-17.5
			c0-9.666,7.836-17.5,17.502-17.5C28.165,1.001,36.001,8.836,36.001,18.501z"/>
		<g>
			<path fill="#FFFFFF" d="M15.584,29.439h4.375c0,0,0-6.039,0-10.938h3.247l0.399-4.375h-3.479v-1.75
				c0-0.853,0.568-1.051,0.967-1.051c0.399,0,2.455,0,2.455,0V7.578l-3.38-0.014c-3.751,0-4.604,2.795-4.604,4.585v1.978h-2.17
				v4.375h2.188C15.584,23.458,15.584,29.439,15.584,29.439z"/>
		</g>
		<path fill="#235B9E" d="M36.001,18.501c0,9.665-7.836,17.5-17.498,17.5c-9.666,0-17.502-7.836-17.502-17.5
			c0-9.666,7.836-17.5,17.502-17.5C28.165,1.001,36.001,8.836,36.001,18.501z"/>
		<g>
			<path fill="#FFFFFF" d="M15.584,29.439h4.375c0,0,0-6.039,0-10.938h3.247l0.399-4.375h-3.479v-1.75
				c0-0.853,0.568-1.051,0.967-1.051c0.399,0,2.455,0,2.455,0V7.578l-3.38-0.014c-3.751,0-4.604,2.795-4.604,4.585v1.978h-2.17
				v4.375h2.188C15.584,23.458,15.584,29.439,15.584,29.439z"/>
		</g>
	</g>
</g>
</svg>
